<svg width="16" height="16" viewBox="0 0 16 16" fill="none" xmlns="http://www.w3.org/2000/svg">
<path fill-rule="evenodd" clip-rule="evenodd" d="M6 2H3C2.4 2 2 2.4 2 3V6C2 6.6 2.4 7 3 7H6C6.6 7 7 6.6 7 6V3C7 2.4 6.6 2 6 2ZM6 6H3V3H6V6ZM13 2H10C9.4 2 9 2.4 9 3V6C9 6.6 9.4 7 10 7H13C13.6 7 14 6.6 14 6V3C14 2.4 13.6 2 13 2ZM13 6H10V3H13V6ZM6 9H3C2.4 9 2 9.4 2 10V13C2 13.6 2.4 14 3 14H6C6.6 14 7 13.6 7 13V10C7 9.4 6.6 9 6 9ZM6 13H3V10H6V13ZM13 9H10C9.4 9 9 9.4 9 10V13C9 13.6 9.4 14 10 14H13C13.6 14 14 13.6 14 13V10C14 9.4 13.6 9 13 9ZM13 13H10V10H13V13Z" fill="#283151"/>
</svg>
